<?xml version="1.0" encoding="utf-8"?>
<!-- Generator: Adobe Illustrator 21.1.0, SVG Export Plug-In . SVG Version: 6.00 Build 0)  -->
<svg version="1.1" id="Layer_1" xmlns="http://www.w3.org/2000/svg" xmlns:xlink="http://www.w3.org/1999/xlink" x="0px" y="0px"
	 viewBox="0 0 200 56" enable-background="new 0 0 200 56" xml:space="preserve">
<g>
	<g id="_Group_5_2_">
		<g id="_Group_6_2_">
			<g id="_Group_7_2_">
				<g id="_Group_8_2_">
					<g id="_Group_9_2_">
						<line id="_Path_6_2_" fill="none" x1="13.45" y1="25.18" x2="13.69" y2="25.96"/>
						<line id="_Path_7_2_" fill="none" x1="13.96" y1="25.45" x2="13.18" y2="25.69"/>
					</g>
				</g>
			</g>
		</g>
		<path id="_Path_8_2_" fill="#7ABC32" d="M39.93,16l-1.69-5.19c-0.25-0.95-0.91-1.75-1.81-2.16c-1.61-0.72-3.5,0.01-4.22,1.62
			l-7.27,17.39l-2.49-7.25l-0.03-0.08c-0.28-0.73-1.02-1.52-2.05-1.22c-0.83,0.24-1.27,1.05-1.47,1.5l-1.77,4.33l4.34,13.17
			c0.52,1.69,2.31,2.63,4,2.11c0.88-0.27,1.6-0.91,1.97-1.75l7.37-17.56v0.02l1.74-4.2c0.21-0.45,0.65-1.26,1.47-1.5
			c1.06-0.31,1.81,0.5,2.06,1.28L39.93,16z"/>
		
			<linearGradient id="_Compound_Path_4_1_" gradientUnits="userSpaceOnUse" x1="1.429" y1="34.5272" x2="62.574" y2="34.5272" gradientTransform="matrix(1 0 0 -1 0 58)">
			<stop  offset="0" style="stop-color:#55B580"/>
			<stop  offset="0.07" style="stop-color:#4EB58C"/>
			<stop  offset="0.19" style="stop-color:#3CB4AD"/>
			<stop  offset="0.33" style="stop-color:#23B3DB"/>
			<stop  offset="0.41" style="stop-color:#1E9ACF"/>
			<stop  offset="0.5" style="stop-color:#1A84C4"/>
			<stop  offset="0.58" style="stop-color:#1877BE"/>
			<stop  offset="0.66" style="stop-color:#1773BC"/>
			<stop  offset="0.75" style="stop-color:#1662A3"/>
			<stop  offset="0.8329" style="stop-color:#153664"/>
			<stop  offset="0.9682" style="stop-color:#84469A"/>
		</linearGradient>
		<path id="_Compound_Path_4_2_" fill="url(#_Compound_Path_4_1_)" d="M13.45,33.78l-0.82,1.86c-0.72,1.53-2.54,2.2-4.08,1.48
			c-1.49-0.7-2.17-2.45-1.53-3.97L7.98,31c0.69-1.54,2.49-2.24,4.04-1.56C13.58,30.12,14.13,32.23,13.45,33.78z M9.31,25.34
			l-0.26-0.91c-0.35-1.66-1.98-2.72-3.63-2.37c-1.66,0.35-2.72,1.98-2.37,3.63c0.03,0.15,0.08,0.31,0.13,0.45l0.26,0.91
			c0.35,1.66,1.98,2.72,3.63,2.37c1.66-0.35,2.72-1.98,2.37-3.63C9.41,25.64,9.36,25.48,9.31,25.34z M6.61,19.39
			c0.29-1.42-0.62-2.8-2.04-3.09c-1.42-0.29-2.8,0.62-3.09,2.04c-0.29,1.42,0.62,2.8,2.04,3.09c0,0,0,0,0,0
			C4.94,21.72,6.32,20.81,6.61,19.39L6.61,19.39z M18.75,12.79c-1.61-0.72-3.5,0.01-4.22,1.62l-3.61,9.54l-0.11,0.29
			c-0.69,1.55,0.01,3.37,1.56,4.05c1.24,0.55,2.69,0.22,3.58-0.81l0,0c0.21-0.24,0.38-0.51,0.51-0.8l2.46-6.05
			c0.21-0.45,0.65-1.26,1.47-1.5c1.06-0.31,1.83,0.52,2.08,1.3l-0.37-1.06l-1.63-4.77l-0.04-0.12c-0.31-0.76-0.9-1.37-1.65-1.71
			 M60.7,3.07c-2.58-1.26-4.16,1.5-4.16,1.5L45.09,31.68c0,0-4.84-14.85-5.05-15.36l-0.03-0.07l0.08,0.25
			c-0.25-0.77-1-1.59-2.06-1.28c-0.83,0.24-1.27,1.05-1.47,1.5l-1.74,4.19v0.02l7.05,21.37c0.46,1.13,1.55,1.88,2.77,1.89
			c2.18,0.11,3.07-1.89,3.07-1.89L62.45,6.94C62.45,6.94,63.28,4.34,60.7,3.07z M39.93,16l-1.69-5.19
			c-0.25-0.95-0.91-1.75-1.81-2.16c-1.61-0.72-3.5,0.01-4.22,1.62l-7.27,17.39l-2.49-7.25l-0.03-0.08
			c-0.28-0.73-1.02-1.52-2.05-1.22c-0.83,0.24-1.27,1.05-1.47,1.5l-1.77,4.33l4.34,13.17c0.52,1.69,2.31,2.63,4,2.11
			c0.88-0.27,1.6-0.91,1.97-1.75l7.37-17.56v0.02l1.74-4.2c0.21-0.45,0.65-1.26,1.47-1.5c1.06-0.31,1.81,0.5,2.06,1.28L39.93,16z"/>
		
			<linearGradient id="_Path_9_1_" gradientUnits="userSpaceOnUse" x1="18.9304" y1="30.2462" x2="15.0517" y2="32.3966" gradientTransform="matrix(1 0 0 -1 0 58)">
			<stop  offset="0" style="stop-color:#1FA5D4;stop-opacity:0"/>
			<stop  offset="1" style="stop-color:#0F77B4"/>
		</linearGradient>
		<path id="_Path_9_2_" fill="url(#_Path_9_1_)" d="M24.94,27.66l-2.49-7.25l-0.03-0.08c-0.28-0.73-1.02-1.52-2.05-1.22
			c-0.83,0.24-1.27,1.05-1.47,1.5l-1.77,4.33l4.34,13.17c0.52,1.69,2.31,2.63,4,2.11c0.88-0.27,1.6-0.91,1.97-1.75l0.66-1.57
			L24.94,27.66z"/>
		
			<linearGradient id="_Path_10_1_" gradientUnits="userSpaceOnUse" x1="35.3986" y1="31.6348" x2="29.0282" y2="35.1686" gradientTransform="matrix(1 0 0 -1 0 58)">
			<stop  offset="0" style="stop-color:#0E5BAB;stop-opacity:0"/>
			<stop  offset="0.02" style="stop-color:#0E5BAB;stop-opacity:0.04"/>
			<stop  offset="0.19" style="stop-color:#0E5BAB;stop-opacity:0.31"/>
			<stop  offset="0.36" style="stop-color:#0E5BAB;stop-opacity:0.53"/>
			<stop  offset="0.53" style="stop-color:#0E5BAB;stop-opacity:0.71"/>
			<stop  offset="0.69" style="stop-color:#0E5BAB;stop-opacity:0.83"/>
			<stop  offset="0.85" style="stop-color:#0E5BAB;stop-opacity:0.9"/>
			<stop  offset="1" style="stop-color:#0E5BAB;stop-opacity:0.93"/>
		</linearGradient>
		<path id="_Path_10_2_" fill="url(#_Path_10_1_)" d="M45.09,31.67L45.09,31.67l-0.84-2.57l-4.15-12.59c-0.25-0.77-1-1.59-2.06-1.28
			c-0.83,0.24-1.27,1.05-1.47,1.5l-1.76,4.19v0.02l7.05,21.37c0.46,1.13,1.55,1.88,2.77,1.89c2.18,0.11,3.07-1.89,3.07-1.89
			l0.49-1.17L45.09,31.67z"/>
	</g>
	<g>
		<path fill="#19305A" d="M198.57,20.11c0,0.83-0.64,1.48-1.46,1.48c-0.82,0-1.47-0.65-1.47-1.48c0-0.81,0.65-1.46,1.47-1.46
			C197.94,18.65,198.57,19.3,198.57,20.11z M195.88,20.11c0,0.72,0.52,1.3,1.24,1.3c0.7,0,1.21-0.57,1.21-1.29
			c0-0.72-0.51-1.31-1.22-1.31C196.4,18.81,195.88,19.4,195.88,20.11z M196.88,20.87h-0.33v-1.46c0.13-0.03,0.31-0.04,0.55-0.04
			c0.27,0,0.39,0.04,0.5,0.11c0.08,0.06,0.14,0.18,0.14,0.32c0,0.16-0.12,0.28-0.3,0.34v0.02c0.14,0.05,0.22,0.16,0.26,0.36
			c0.04,0.22,0.07,0.31,0.1,0.36h-0.36c-0.04-0.05-0.07-0.19-0.11-0.36c-0.03-0.16-0.11-0.23-0.3-0.23h-0.16V20.87z M196.89,20.05
			h0.16c0.18,0,0.33-0.06,0.33-0.21c0-0.13-0.1-0.22-0.31-0.22c-0.09,0-0.15,0.01-0.18,0.02V20.05z"/>
	</g>
	<g id="XMLID_18_">
		<g id="XMLID_20_">
			<g id="XMLID_21_">
				<path id="XMLID_51_" fill="#19305A" d="M84.24,18.61c-0.59,0-1.1,0.39-1.28,0.93l-2.6,8.12l-2.34-8.12
					c-0.15-0.54-0.67-0.93-1.23-0.93c-0.56,0-1.06,0.39-1.21,0.93l-2.32,8.1l-2.62-8.1c-0.17-0.54-0.69-0.93-1.28-0.93
					c-0.74,0-1.34,0.61-1.34,1.34c0,0.61,3.53,11.2,3.96,12.52c0.17,0.54,0.69,0.93,1.28,0.93c0.59,0,1.13-0.37,1.28-0.93l2.27-7.93
					l2.27,7.93c0.15,0.56,0.67,0.93,1.26,0.93s1.1-0.39,1.28-0.93c0.43-1.32,3.96-11.91,3.96-12.52
					C85.58,19.22,84.98,18.61,84.24,18.61"/>
				<path id="XMLID_50_" fill="#19305A" d="M128.55,24.26l3.42-3.36c0.26-0.26,0.41-0.58,0.41-0.95c0-0.74-0.61-1.34-1.34-1.34
					c-0.35,0-0.69,0.15-0.93,0.39l-6.28,6.15v-5.09c0-0.78-0.63-1.45-1.43-1.45c-0.8,0-1.45,0.65-1.45,1.45v11.89
					c0,0.8,0.65,1.45,1.45,1.45c0.8,0,1.43-0.67,1.43-1.45V28.9c0.91-0.91,1.84-1.8,2.75-2.71l4.07,6.56
					c0.24,0.39,0.69,0.65,1.15,0.65c0.74,0,1.32-0.61,1.32-1.34c0-0.24-0.06-0.48-0.19-0.69L128.55,24.26z"/>
				<path id="XMLID_49_" fill="#19305A" d="M152.05,18.61c-0.59,0-1.1,0.39-1.28,0.93l-2.6,8.12l-2.34-8.12
					c-0.15-0.54-0.67-0.93-1.23-0.93c-0.56,0-1.06,0.39-1.21,0.93l-2.32,8.1l-2.62-8.1c-0.17-0.54-0.69-0.93-1.28-0.93
					c-0.74,0-1.34,0.61-1.34,1.34c0,0.61,3.53,11.2,3.96,12.52c0.17,0.54,0.69,0.93,1.28,0.93c0.59,0,1.13-0.37,1.28-0.93l2.27-7.93
					l2.27,7.93c0.15,0.56,0.67,0.93,1.26,0.93c0.58,0,1.1-0.39,1.28-0.93c0.43-1.32,3.96-11.91,3.96-12.52
					C153.39,19.22,152.79,18.61,152.05,18.61"/>
				<path id="XMLID_48_" fill="#19305A" d="M179.47,18.61c-0.52,0-0.99,0.3-1.21,0.78l-4.05,9.68l-4.03-9.68
					c-0.2-0.5-0.71-0.78-1.23-0.78c-0.71,0-1.32,0.65-1.32,1.36c0,0.17,0.04,0.37,0.11,0.54l5.26,12.1c0.22,0.5,0.69,0.78,1.23,0.78
					c0.52,0,1.02-0.3,1.21-0.78l5.24-12.1c0.09-0.17,0.13-0.37,0.13-0.56C180.81,19.22,180.21,18.61,179.47,18.61"/>
				<path id="XMLID_47_" fill="#19305A" d="M193.74,30.52h-6.76v-3.2h3.57c0.74,0,1.34-0.58,1.34-1.34c0-0.76-0.61-1.36-1.34-1.36
					h-3.57v-3.1h6.43c0.74,0,1.36-0.61,1.36-1.36c0-0.74-0.63-1.34-1.36-1.34h-7.86c-0.8,0-1.45,0.63-1.45,1.43v11.54
					c0,0.8,0.65,1.45,1.45,1.45h8.18c0.74,0,1.36-0.58,1.36-1.34C195.1,31.15,194.47,30.52,193.74,30.52"/>
				<path id="XMLID_44_" fill="#19305A" d="M94.9,18.54c-4.16,0-7.4,3.31-7.4,7.47c0,4.16,3.25,7.49,7.4,7.49
					c4.16,0,7.38-3.33,7.38-7.49C102.28,21.86,99.05,18.54,94.9,18.54 M94.9,30.84c-2.71,0-4.53-2.17-4.53-4.83
					c0-2.66,1.82-4.81,4.53-4.81c2.71,0,4.5,2.14,4.5,4.81C99.4,28.68,97.6,30.84,94.9,30.84"/>
				<path id="XMLID_41_" fill="#19305A" d="M117.49,23.14c0-3.16-2.4-4.33-5.26-4.33h-5.37c-0.8,0-1.43,0.63-1.43,1.43v11.74
					c0,0.8,0.63,1.43,1.43,1.43c0.78,0,1.45-0.63,1.45-1.43V27.4h3.96c0.02,0.11,2.36,4.79,2.58,5.22c0.24,0.48,0.71,0.78,1.23,0.78
					c0.78,0,1.41-0.63,1.41-1.39c0-0.69-1.95-4.29-2.36-5.11C116.71,26.23,117.49,24.82,117.49,23.14 M112.64,24.93h-4.33v-3.46
					h4.33c1.08,0,1.97,0.61,1.97,1.75C114.61,24.37,113.7,24.93,112.64,24.93"/>
				<path id="XMLID_22_" fill="#19305A" d="M153.96,31.49c-0.06,0.17-0.11,0.37-0.11,0.56c0,0.74,0.59,1.34,1.32,1.34
					c0.31,0,0.6-0.11,0.82-0.33c0.15-0.11,0.28-0.26,0.36-0.44c0.08-0.17,1.87-3.75,6.76-4.27l1.91,4.25
					c0.22,0.48,0.69,0.78,1.21,0.78c0.76,0,1.36-0.63,1.36-1.36c0-0.17-0.04-0.37-0.13-0.54l-5.54-12.11
					c-0.19-0.45-0.67-0.78-1.19-0.78c-0.52,0-1.02,0.28-1.26,0.78L153.96,31.49z M162.1,26.1c-1.27,0.21-2.36,0.59-3.29,1.06
					l1.91-4.13L162.1,26.1z"/>
			</g>
		</g>
	</g>
	<g>
		<path fill="#84469A" d="M121.68,36.57l2.17,7.61h-1.7l-0.39-1.56h-2.13l-0.38,1.56h-1.54l2.28-7.61H121.68z M121.45,41.3
			l-0.76-3.1l-0.74,3.1H121.45z"/>
		<path fill="#84469A" d="M126.4,36.57l1.95,4.72v-4.72h1.3v7.61h-1.49l-2.31-5.51v5.51h-1.3v-7.61H126.4z"/>
		<path fill="#84469A" d="M135.7,36.57v7.61h-1.66v-7.61H135.7z"/>
		<path fill="#84469A" d="M141.57,36.57v1.31h-2.84v1.98h2.19v1.31h-2.19v3h-1.66v-7.61H141.57z"/>
		<path fill="#84469A" d="M145.59,38.76c-0.02-0.07-0.06-0.16-0.1-0.26c-0.04-0.11-0.1-0.21-0.18-0.31
			c-0.08-0.1-0.18-0.19-0.31-0.26c-0.13-0.07-0.29-0.11-0.48-0.11c-0.14,0-0.26,0.02-0.36,0.06c-0.1,0.04-0.19,0.1-0.25,0.17
			c-0.06,0.07-0.11,0.14-0.14,0.23c-0.03,0.08-0.05,0.16-0.05,0.24c0,0.13,0.03,0.24,0.09,0.34c0.06,0.1,0.15,0.18,0.26,0.25
			c0.11,0.07,0.25,0.14,0.41,0.21c0.16,0.07,0.34,0.14,0.55,0.22c0.21,0.08,0.44,0.18,0.69,0.29c0.25,0.11,0.48,0.25,0.68,0.43
			c0.21,0.17,0.38,0.39,0.52,0.65c0.14,0.26,0.21,0.58,0.21,0.97c0,0.33-0.06,0.64-0.17,0.93c-0.11,0.29-0.28,0.55-0.51,0.78
			c-0.22,0.22-0.51,0.4-0.84,0.53s-0.73,0.19-1.18,0.19c-0.14,0-0.29-0.01-0.46-0.03c-0.17-0.02-0.34-0.06-0.51-0.11
			c-0.17-0.06-0.35-0.14-0.52-0.24c-0.17-0.1-0.34-0.24-0.49-0.42c-0.21-0.24-0.36-0.48-0.45-0.7c-0.09-0.22-0.15-0.42-0.2-0.59
			l1.46-0.41c0.02,0.08,0.06,0.19,0.1,0.32c0.05,0.13,0.11,0.25,0.2,0.38c0.09,0.12,0.21,0.23,0.35,0.31
			c0.15,0.09,0.34,0.13,0.56,0.13c0.29,0,0.52-0.07,0.7-0.22c0.18-0.15,0.27-0.35,0.27-0.6c0-0.14-0.03-0.25-0.09-0.35
			c-0.06-0.09-0.13-0.18-0.23-0.26c-0.1-0.08-0.21-0.14-0.33-0.19c-0.13-0.05-0.26-0.11-0.4-0.16c-0.26-0.09-0.52-0.19-0.79-0.31
			c-0.27-0.11-0.52-0.26-0.74-0.44c-0.22-0.18-0.41-0.4-0.55-0.66c-0.14-0.26-0.21-0.58-0.21-0.97c0-0.3,0.05-0.58,0.14-0.86
			c0.09-0.28,0.24-0.52,0.44-0.74c0.2-0.22,0.45-0.39,0.76-0.52c0.3-0.13,0.67-0.2,1.08-0.2c0.47,0,0.86,0.07,1.16,0.21
			s0.54,0.3,0.72,0.49c0.18,0.19,0.31,0.39,0.39,0.59c0.08,0.2,0.14,0.36,0.18,0.48L145.59,38.76z"/>
		<path fill="#84469A" d="M156.42,41.51c-0.03,0.39-0.11,0.75-0.23,1.09c-0.13,0.34-0.3,0.63-0.52,0.88
			c-0.22,0.25-0.49,0.45-0.8,0.59c-0.32,0.14-0.68,0.22-1.1,0.22c-0.58,0-1.05-0.12-1.43-0.36c-0.37-0.24-0.67-0.56-0.88-0.94
			c-0.21-0.38-0.36-0.81-0.44-1.27s-0.12-0.91-0.12-1.34c0-0.23,0.01-0.48,0.04-0.77c0.03-0.29,0.08-0.57,0.15-0.86
			c0.07-0.29,0.17-0.57,0.3-0.85c0.13-0.28,0.3-0.52,0.51-0.74c0.21-0.21,0.47-0.38,0.78-0.51c0.31-0.13,0.67-0.19,1.1-0.19
			c0.29,0,0.54,0.03,0.76,0.09c0.22,0.06,0.41,0.14,0.58,0.23c0.17,0.1,0.31,0.21,0.43,0.33c0.12,0.13,0.22,0.25,0.3,0.37
			c0.11,0.17,0.2,0.34,0.27,0.51c0.06,0.17,0.12,0.35,0.15,0.52c0.04,0.17,0.06,0.33,0.08,0.48c0.02,0.15,0.03,0.29,0.03,0.4
			l-1.52,0.11c-0.02-0.15-0.03-0.33-0.06-0.52c-0.02-0.19-0.07-0.38-0.14-0.55c-0.07-0.17-0.17-0.32-0.31-0.44
			c-0.14-0.12-0.33-0.18-0.56-0.18c-0.24,0-0.43,0.07-0.58,0.21c-0.15,0.14-0.26,0.32-0.35,0.56c-0.08,0.24-0.14,0.52-0.17,0.85
			c-0.03,0.33-0.05,0.68-0.05,1.07c0,0.32,0.01,0.63,0.04,0.92c0.03,0.29,0.08,0.55,0.16,0.78c0.08,0.22,0.19,0.4,0.34,0.54
			c0.15,0.13,0.35,0.2,0.6,0.2c0.23,0,0.41-0.06,0.54-0.18c0.13-0.12,0.24-0.26,0.31-0.43c0.08-0.16,0.13-0.33,0.16-0.5
			c0.03-0.17,0.05-0.31,0.07-0.42L156.42,41.51z"/>
		<path fill="#84469A" d="M159.91,36.46c0.4,0,0.75,0.06,1.04,0.18s0.54,0.28,0.75,0.48c0.21,0.2,0.37,0.44,0.5,0.7
			c0.13,0.27,0.22,0.54,0.3,0.83c0.07,0.29,0.12,0.58,0.14,0.88c0.02,0.3,0.03,0.58,0.03,0.84c0,0.23-0.01,0.48-0.03,0.77
			c-0.02,0.29-0.06,0.57-0.13,0.86c-0.06,0.29-0.16,0.57-0.29,0.84c-0.13,0.27-0.29,0.52-0.49,0.73c-0.2,0.21-0.45,0.38-0.75,0.51
			c-0.3,0.13-0.66,0.19-1.08,0.19c-0.61,0-1.09-0.13-1.46-0.39c-0.36-0.26-0.64-0.59-0.84-0.99c-0.19-0.4-0.32-0.82-0.38-1.28
			c-0.06-0.46-0.09-0.87-0.09-1.25c0-0.24,0.01-0.51,0.03-0.8c0.02-0.29,0.07-0.58,0.13-0.87c0.06-0.29,0.16-0.57,0.29-0.84
			c0.13-0.27,0.29-0.52,0.5-0.72c0.21-0.21,0.46-0.38,0.75-0.5C159.14,36.52,159.5,36.46,159.91,36.46z M159.91,37.81
			c-0.21,0-0.38,0.06-0.51,0.17c-0.13,0.11-0.23,0.28-0.3,0.5c-0.07,0.22-0.12,0.48-0.15,0.8c-0.03,0.32-0.04,0.68-0.04,1.09
			c0,0.41,0.01,0.77,0.04,1.09c0.03,0.32,0.08,0.58,0.15,0.8c0.07,0.22,0.17,0.38,0.3,0.5c0.13,0.11,0.3,0.17,0.51,0.17
			c0.21,0,0.39-0.06,0.52-0.17c0.13-0.11,0.24-0.28,0.31-0.5c0.07-0.22,0.12-0.49,0.14-0.8c0.02-0.32,0.03-0.67,0.03-1.08
			c0-0.4-0.01-0.75-0.03-1.07c-0.02-0.32-0.07-0.59-0.14-0.81c-0.07-0.22-0.17-0.39-0.31-0.51
			C160.29,37.87,160.12,37.81,159.91,37.81z"/>
		<path fill="#84469A" d="M166.24,36.57l1.07,4.7l1.21-4.7h2.37v7.61h-1.56V37.8l-1.55,6.37h-1.22l-1.41-6.37v6.37h-1.36v-7.61
			H166.24z"/>
		<path fill="#84469A" d="M174.46,36.57c0.2,0,0.4,0,0.6,0.01c0.2,0.01,0.4,0.03,0.59,0.06c0.19,0.03,0.37,0.09,0.54,0.17
			c0.17,0.08,0.33,0.19,0.47,0.34c0.13,0.14,0.24,0.28,0.32,0.44c0.08,0.16,0.15,0.31,0.19,0.47c0.05,0.16,0.08,0.32,0.1,0.47
			c0.02,0.15,0.03,0.29,0.03,0.42c0,0.38-0.06,0.75-0.18,1.1c-0.12,0.35-0.32,0.64-0.62,0.87c-0.14,0.11-0.31,0.2-0.48,0.26
			c-0.18,0.06-0.36,0.1-0.54,0.13c-0.18,0.03-0.36,0.05-0.52,0.05c-0.17,0-0.31,0.01-0.42,0.01h-0.59v2.81h-1.66v-7.61H174.46z
			 M173.93,37.8v2.26h0.52c0.14,0,0.28-0.01,0.41-0.03c0.13-0.02,0.24-0.07,0.34-0.15c0.1-0.08,0.18-0.2,0.23-0.35
			c0.06-0.15,0.09-0.35,0.09-0.6c0-0.28-0.04-0.5-0.11-0.65c-0.08-0.15-0.17-0.26-0.29-0.33c-0.11-0.07-0.23-0.11-0.35-0.12
			s-0.23-0.02-0.32-0.02H173.93z"/>
		<path fill="#84469A" d="M180.92,36.57l2.17,7.61h-1.7L181,42.61h-2.13l-0.38,1.56h-1.54l2.28-7.61H180.92z M180.69,41.3l-0.76-3.1
			l-0.74,3.1H180.69z"/>
		<path fill="#84469A" d="M185.64,36.57l1.95,4.72v-4.72h1.3v7.61h-1.49l-2.31-5.51v5.51h-1.3v-7.61H185.64z"/>
		<path fill="#84469A" d="M191.3,36.57l1.07,2.78l1.14-2.78h1.63l-2.11,4.39v3.22h-1.66v-3.22l-1.9-4.39H191.3z"/>
	</g>
</g>
</svg>
